<?xml version="1.0" ?><svg id="Layer_1" style="enable-background:new 0 0 32 32;" version="1.1" viewBox="0 0 32 32" xml:space="preserve" xmlns="http://www.w3.org/2000/svg" xmlns:xlink="http://www.w3.org/1999/xlink"><style type="text/css">
	.st0{fill:#000000;}
	.st1{fill:#000000;}
	.st2{fill-rule:evenodd;clip-rule:evenodd;fill:#000000;stroke:#000000;stroke-width:0.776;}
	.st3{fill-rule:evenodd;clip-rule:evenodd;fill:#000000;fill-opacity:0;stroke:#000000;stroke-width:0.776;}
	.st4{fill:none;stroke:#000000;stroke-width:1.5556;stroke-opacity:0.5;}
	.st5{fill:none;stroke:#000000;stroke-width:1.5556;}
	.st6{fill:#000000;}
</style><g id="briefcase"><path class="st0" d="M18.2,20.2h-4.3c-0.4,0-0.7-0.3-0.7-0.7v-1.9H2v7.7c0,0.7,0.6,1.3,1.3,1.3h25.4c0.7,0,1.3-0.6,1.3-1.3v-7.7   H18.8v1.9C18.8,19.9,18.5,20.2,18.2,20.2z"/><path class="st0" d="M28.7,8.6H20c0,0,0-2.3,0-2.8c0-0.5-0.3-0.4-0.3-0.4h-8.1c0,0-0.3,0-0.3,0.4c0,0.4,0,2.8,0,2.8H3.3   C2.6,8.6,2,9.2,2,9.9v5.8h28V9.9C30,9.2,29.4,8.6,28.7,8.6z M12.5,8.6V7.3c0-0.5,0.4-0.9,0.9-0.9h4.3c0.5,0,0.9,0.4,0.9,0.9v1.4   H12.5z"/><path class="st0" d="M14.7,17.6h2.6c0.3,0,0.6,0.3,0.6,0.6v0.6c0,0.3-0.3,0.6-0.6,0.6h-2.6c-0.3,0-0.6-0.3-0.6-0.6v-0.6   C14.1,17.9,14.4,17.6,14.7,17.6z"/></g></svg>