<?xml version="1.0" encoding="UTF-8"?>
<svg id="Layer_1" data-name="Layer 1" xmlns="http://www.w3.org/2000/svg" version="1.1" viewBox="0 0 60 25">
  <defs>
    <style>
      .cls-1 {
        fill: #fff;
      }

      .cls-1, .cls-2 {
        fill-rule: evenodd;
        stroke-width: 0px;
      }

      .cls-2 {
        fill: #ccc;
      }
    </style>
  </defs>
  <path class="cls-2" d="M60,13.8h-8.2c.2,1.8,1.6,2.4,3.2,2.4s3-.4,4-.9v3.1c-1.3.8-3,1.1-4.6,1.1-4,0-6.9-2.3-6.9-7s2.4-7.1,6.3-7.1,6,3.1,6,7.1v1.3s.2,0,.2,0ZM54,8.6c-1,0-2.2.7-2.2,2.4h4.3c0-1.8-1-2.4-2.1-2.4ZM41.1,19.5c-1.5,0-2.3-.6-2.9-1v4.4l-4.2.8V5.7h3.7v1c.9-.8,2.1-1.2,3.3-1.2,2.9,0,5.6,2.4,5.6,7s-2.6,7-5.6,7h.1ZM40.2,8.9c-.9,0-1.6.3-2,.8v5.7c.4.4,1,.8,2,.8,1.6,0,2.6-1.6,2.6-3.6s-1-3.7-2.6-3.7h0ZM28.3,5.7h4.2v13.6h-4.2V5.7ZM28.3,1.2l4.2-.8v3.2l-4.2.9V1.2h0ZM24.1,10v9.2h-4.2V5.7h3.7v1.2c1.1-1.7,3.2-1.4,3.7-1.2v3.6c-.5-.2-2.3-.4-3.3.8h0ZM15.4,14.4c0,2.3,2.7,1.6,3.2,1.4v3.2c-.6.3-1.7.5-3.2.5-2.2,0-4-1.7-4-3.8V3.1l4-.8v3.3h3.1v3.3h-3.1v5.5h0ZM10.4,15.1c0,2.8-2.2,4.4-5.6,4.4s-4.5-.9-4.5-.9v-3.7c1.3.7,3.1,1.3,4.5,1.3s1.6-.2,1.6-1C6.4,13.4,0,14,0,9.7s3.6-4.8,5.8-4.8,4,1.1,4,1.1v3.7c-1.2-.6-2.7-1-4.2-1s-1.5.2-1.5.9c0,1.8,6.3.9,6.3,5.5h0Z"/>
  <path class="cls-1" d="M60,13.4h-8.2c.2,1.8,1.6,2.4,3.2,2.4s3-.4,4-.9v3.1c-1.3.8-3,1.1-4.6,1.1-4,0-6.9-2.3-6.9-7s2.4-7.1,6.3-7.1,6,3.1,6,7.1v1.3s.2,0,.2,0ZM54,8.2c-1,0-2.2.7-2.2,2.4h4.3c0-1.8-1-2.4-2.1-2.4ZM41.1,19.1c-1.5,0-2.3-.6-2.9-1v4.4l-4.2.8V5.3h3.7v1c.9-.8,2.1-1.2,3.3-1.2,2.9,0,5.6,2.4,5.6,7s-2.6,7-5.6,7h.1ZM40.2,8.5c-.9,0-1.6.3-2,.8v5.7c.4.4,1,.8,2,.8,1.6,0,2.6-1.6,2.6-3.6s-1-3.7-2.6-3.7h0ZM28.3,5.3h4.2v13.6h-4.2V5.3ZM28.3.8l4.2-.8v3.2l-4.2.9V.8h0ZM24.1,9.6v9.2h-4.2V5.3h3.7v1.2c1.1-1.7,3.2-1.4,3.7-1.2v3.6c-.5-.2-2.3-.4-3.3.8h0ZM15.4,14c0,2.3,2.7,1.6,3.2,1.4v3.2c-.6.3-1.7.5-3.2.5-2.2,0-4-1.7-4-3.8V2.7l4-.8v3.3h3.1v3.3h-3.1v5.5h0ZM10.4,14.7c0,2.8-2.2,4.4-5.6,4.4s-4.5-.9-4.5-.9v-3.7c1.3.7,3.1,1.3,4.5,1.3s1.6-.2,1.6-1c0-1.8-6.4-1.2-6.4-5.5s3.6-4.8,5.8-4.8,4,1.1,4,1.1v3.7c-1.2-.6-2.7-1-4.2-1s-1.5.2-1.5.9c0,1.8,6.3.9,6.3,5.5h0Z"/>
</svg>